<?xml version="1.0" encoding="UTF-8" standalone="no"?><svg xmlns="http://www.w3.org/2000/svg" xmlns:xlink="http://www.w3.org/1999/xlink" contentStyleType="text/css" height="414px" preserveAspectRatio="none" style="width:295px;height:414px;background:#FFFFFF;" version="1.1" viewBox="0 0 295 414" width="295px" zoomAndPan="magnify"><defs/><g><rect fill="none" height="26.2969" id="_title" style="stroke:none;stroke-width:1.0;" width="151" x="65" y="5"/><text fill="#000000" font-family="sans-serif" font-size="14" font-weight="bold" lengthAdjust="spacing" textLength="141" x="70" y="22.9951">Prototype Pattern</text><!--MD5=[7fd4401f5c5cb0e3d029c879cad30c04]
class Animal--><g id="elem_Animal"><rect codeLine="4" fill="#F1F1F1" height="80.5938" id="Animal" rx="2.5" ry="2.5" style="stroke:#181818;stroke-width:0.5;" width="124" x="85.5" y="169.2969"/><ellipse cx="121.2" cy="185.2969" fill="#A9DCDF" rx="11" ry="11" style="stroke:#181818;stroke-width:1.0;"/><path d="M116.3719,191.0469 L119.7156,178.8594 L122.8563,178.8594 L126.2313,191.0469 L123.7625,191.0469 L123.0281,188.0313 L119.5125,188.0313 L118.7625,191.0469 L116.3719,191.0469 Z M120.7781,183 L120.0281,186 L122.5438,186 L121.825,183 Q121.6844,182.4219 121.5594,181.875 Q121.4344,181.3125 121.2938,180.7344 Q121.1844,181.3125 121.0438,181.875 Q120.9031,182.4219 120.7781,183 Z " fill="#000000"/><text fill="#000000" font-family="sans-serif" font-size="14" font-style="italic" lengthAdjust="spacing" textLength="46" x="139.8" y="190.1436">Animal</text><line style="stroke:#181818;stroke-width:0.5;" x1="86.5" x2="208.5" y1="201.2969" y2="201.2969"/><line style="stroke:#181818;stroke-width:0.5;" x1="86.5" x2="208.5" y1="209.2969" y2="209.2969"/><ellipse cx="96.5" cy="222.9453" fill="#84BE84" rx="3" ry="3" style="stroke:#038048;stroke-width:1.0;"/><text fill="#000000" font-family="sans-serif" font-size="14" font-style="italic" lengthAdjust="spacing" textLength="98" x="105.5" y="226.292">Animal clone()</text><ellipse cx="96.5" cy="239.2422" fill="#84BE84" rx="3" ry="3" style="stroke:#038048;stroke-width:1.0;"/><text fill="#000000" font-family="sans-serif" font-size="14" font-style="italic" lengthAdjust="spacing" textLength="82" x="105.5" y="242.5889">String play()</text></g><!--MD5=[454ed48f055567edc734f170f61b4daf]
class Dog--><g id="elem_Dog"><rect codeLine="9" fill="#F1F1F1" height="80.5938" id="Dog" rx="2.5" ry="2.5" style="stroke:#181818;stroke-width:0.5;" width="123" x="7" y="327.2969"/><ellipse cx="49.9" cy="343.2969" fill="#ADD1B2" rx="11" ry="11" style="stroke:#181818;stroke-width:1.0;"/><path d="M49.3688,350.2188 Q47.6188,350.2188 46.4781,349.4844 Q45.3531,348.7344 44.7906,347.3906 Q44.2438,346.0313 44.2438,344.2344 Q44.2438,342.2031 44.9,340.75 Q45.5563,339.2969 46.8375,338.5156 Q48.1188,337.7344 49.9938,337.7344 Q50.8844,337.7344 51.5563,337.9219 Q52.2281,338.0938 52.9156,338.4375 L52.1031,340.4531 Q51.4781,340.1406 50.9313,340.0156 Q50.4,339.8906 49.9156,339.8906 Q48.7438,339.8906 48.0406,340.4219 Q47.3375,340.9531 47.0406,341.9063 Q46.7438,342.8594 46.7438,344.125 Q46.7438,346.1406 47.4625,347.1094 Q48.1813,348.0625 49.775,348.0625 Q50.3688,348.0625 50.9938,347.9063 Q51.6188,347.75 52.4469,347.375 L52.4469,349.5938 Q51.7125,349.9063 50.9156,350.0625 Q50.1344,350.2188 49.3688,350.2188 Z " fill="#000000"/><text fill="#000000" font-family="sans-serif" font-size="14" lengthAdjust="spacing" textLength="29" x="70.1" y="348.1436">Dog</text><line style="stroke:#181818;stroke-width:0.5;" x1="8" x2="129" y1="359.2969" y2="359.2969"/><line style="stroke:#181818;stroke-width:0.5;" x1="8" x2="129" y1="367.2969" y2="367.2969"/><ellipse cx="18" cy="380.9453" fill="#84BE84" rx="3" ry="3" style="stroke:#038048;stroke-width:1.0;"/><text fill="#000000" font-family="sans-serif" font-size="14" lengthAdjust="spacing" textLength="97" x="27" y="384.292">Animal clone()</text><ellipse cx="18" cy="397.2422" fill="#84BE84" rx="3" ry="3" style="stroke:#038048;stroke-width:1.0;"/><text fill="#000000" font-family="sans-serif" font-size="14" lengthAdjust="spacing" textLength="81" x="27" y="400.5889">String play()</text></g><!--MD5=[8d10b9619f233caeee54837354dd5717]
class Cat--><g id="elem_Cat"><rect codeLine="14" fill="#F1F1F1" height="80.5938" id="Cat" rx="2.5" ry="2.5" style="stroke:#181818;stroke-width:0.5;" width="123" x="165" y="327.2969"/><ellipse cx="210.75" cy="343.2969" fill="#ADD1B2" rx="11" ry="11" style="stroke:#181818;stroke-width:1.0;"/><path d="M210.2188,350.2188 Q208.4688,350.2188 207.3281,349.4844 Q206.2031,348.7344 205.6406,347.3906 Q205.0938,346.0313 205.0938,344.2344 Q205.0938,342.2031 205.75,340.75 Q206.4063,339.2969 207.6875,338.5156 Q208.9688,337.7344 210.8438,337.7344 Q211.7344,337.7344 212.4063,337.9219 Q213.0781,338.0938 213.7656,338.4375 L212.9531,340.4531 Q212.3281,340.1406 211.7813,340.0156 Q211.25,339.8906 210.7656,339.8906 Q209.5938,339.8906 208.8906,340.4219 Q208.1875,340.9531 207.8906,341.9063 Q207.5938,342.8594 207.5938,344.125 Q207.5938,346.1406 208.3125,347.1094 Q209.0313,348.0625 210.625,348.0625 Q211.2188,348.0625 211.8438,347.9063 Q212.4688,347.75 213.2969,347.375 L213.2969,349.5938 Q212.5625,349.9063 211.7656,350.0625 Q210.9844,350.2188 210.2188,350.2188 Z " fill="#000000"/><text fill="#000000" font-family="sans-serif" font-size="14" lengthAdjust="spacing" textLength="23" x="231.25" y="348.1436">Cat</text><line style="stroke:#181818;stroke-width:0.5;" x1="166" x2="287" y1="359.2969" y2="359.2969"/><line style="stroke:#181818;stroke-width:0.5;" x1="166" x2="287" y1="367.2969" y2="367.2969"/><ellipse cx="176" cy="380.9453" fill="#84BE84" rx="3" ry="3" style="stroke:#038048;stroke-width:1.0;"/><text fill="#000000" font-family="sans-serif" font-size="14" lengthAdjust="spacing" textLength="97" x="185" y="384.292">Animal clone()</text><ellipse cx="176" cy="397.2422" fill="#84BE84" rx="3" ry="3" style="stroke:#038048;stroke-width:1.0;"/><text fill="#000000" font-family="sans-serif" font-size="14" lengthAdjust="spacing" textLength="81" x="185" y="400.5889">String play()</text></g><!--MD5=[aa7f586532e18719e6cefa70fc650583]
class Object--><g id="elem_Object"><rect fill="#F1F1F1" height="48" id="Object" rx="2.5" ry="2.5" style="stroke:#181818;stroke-width:0.5;" width="77" x="109" y="44.2969"/><ellipse cx="124" cy="60.2969" fill="#ADD1B2" rx="11" ry="11" style="stroke:#181818;stroke-width:1.0;"/><path d="M123.4688,67.2188 Q121.7188,67.2188 120.5781,66.4844 Q119.4531,65.7344 118.8906,64.3906 Q118.3438,63.0313 118.3438,61.2344 Q118.3438,59.2031 119,57.75 Q119.6563,56.2969 120.9375,55.5156 Q122.2188,54.7344 124.0938,54.7344 Q124.9844,54.7344 125.6563,54.9219 Q126.3281,55.0938 127.0156,55.4375 L126.2031,57.4531 Q125.5781,57.1406 125.0313,57.0156 Q124.5,56.8906 124.0156,56.8906 Q122.8438,56.8906 122.1406,57.4219 Q121.4375,57.9531 121.1406,58.9063 Q120.8438,59.8594 120.8438,61.125 Q120.8438,63.1406 121.5625,64.1094 Q122.2813,65.0625 123.875,65.0625 Q124.4688,65.0625 125.0938,64.9063 Q125.7188,64.75 126.5469,64.375 L126.5469,66.5938 Q125.8125,66.9063 125.0156,67.0625 Q124.2344,67.2188 123.4688,67.2188 Z " fill="#000000"/><text fill="#000000" font-family="sans-serif" font-size="14" lengthAdjust="spacing" textLength="45" x="138" y="65.1436">Object</text><line style="stroke:#181818;stroke-width:0.5;" x1="110" x2="185" y1="76.2969" y2="76.2969"/><line style="stroke:#181818;stroke-width:0.5;" x1="110" x2="185" y1="84.2969" y2="84.2969"/></g><!--MD5=[5037e5108ae860e34ac250b7d2b84c09]
reverse link Animal to Dog--><g id="link_Animal_Dog"><path codeLine="19" d="M118.27,268.5269 C108.4,288.0169 97.6,309.3269 88.6,327.0969 " fill="none" id="Animal-backto-Dog" style="stroke:#181818;stroke-width:1.0;"/><polygon fill="none" points="112.08,265.2469,127.36,250.5669,124.57,271.5669,112.08,265.2469" style="stroke:#181818;stroke-width:1.0;"/><text fill="#000000" font-family="sans-serif" font-size="13" lengthAdjust="spacing" textLength="26" x="111.5" y="293.3638">继承</text></g><!--MD5=[29afdbb58cca2b953b6b88505d3bed3f]
reverse link Animal to Cat--><g id="link_Animal_Cat"><path codeLine="20" d="M176.73,268.5269 C186.6,288.0169 197.4,309.3269 206.4,327.0969 " fill="none" id="Animal-backto-Cat" style="stroke:#181818;stroke-width:1.0;"/><polygon fill="none" points="170.43,271.5669,167.64,250.5669,182.92,265.2469,170.43,271.5669" style="stroke:#181818;stroke-width:1.0;"/><text fill="#000000" font-family="sans-serif" font-size="13" lengthAdjust="spacing" textLength="26" x="189.5" y="293.3638">继承</text></g><!--MD5=[a40cbae9f279b2369cacc3aebf8d2f9d]
link Object to Animal--><g id="link_Object_Animal"><path codeLine="22" d="M147.5,92.3369 C147.5,111.7669 147.5,140.1569 147.5,164.0369 " fill="none" id="Object-to-Animal" style="stroke:#181818;stroke-width:1.0;stroke-dasharray:7.0,7.0;"/><polygon fill="#181818" points="147.5,169.0669,151.5,160.0669,147.5,164.0669,143.5,160.0669,147.5,169.0669" style="stroke:#181818;stroke-width:1.0;"/><text fill="#000000" font-family="sans-serif" font-size="13" lengthAdjust="spacing" textLength="26" x="148.5" y="135.3638">依赖</text></g><!--MD5=[76a01a2f45b6014814cc22a356e466cf]
@startuml prototype

title Prototype Pattern

abstract class Animal {
  + Animal clone() {abstract}
  + String play() {abstract}
}

class Dog {
    + Animal clone()
    + String play()
}

class Cat {
    + Animal clone()
    + String play()
}

Animal <|- - Dog : 继承
Animal <|- - Cat : 继承

Object ..> Animal : 依赖

@enduml

PlantUML version 1.2022.7(Tue Aug 23 01:01:30 CST 2022)
(GPL source distribution)
Java Runtime: OpenJDK Runtime Environment
JVM: OpenJDK 64-Bit Server VM
Default Encoding: UTF-8
Language: en
Country: US
--></g></svg>